<?xml version="1.0" encoding="UTF-8" standalone="no"?>
<svg
   xmlns:dc="http://purl.org/dc/elements/1.1/"
   xmlns:cc="http://creativecommons.org/ns#"
   xmlns:rdf="http://www.w3.org/1999/02/22-rdf-syntax-ns#"
   xmlns:svg="http://www.w3.org/2000/svg"
   xmlns="http://www.w3.org/2000/svg"
   xmlns:sodipodi="http://sodipodi.sourceforge.net/DTD/sodipodi-0.dtd"
   xmlns:inkscape="http://www.inkscape.org/namespaces/inkscape"
   width="24"
   height="24"
   viewBox="0 0 24 24"
   version="1.1"
   id="svg6"
   sodipodi:docname="steering_wheel_black.svg"
   inkscape:version="0.92.2 (5c3e80d, 2017-08-06)"
   inkscape:export-filename="C:\Dev\FahrgemeinschaftApp\Grafiken\SVG\baseline_expand_more_circle_snblue.png"
   inkscape:export-xdpi="288"
   inkscape:export-ydpi="288">
  <metadata
     id="metadata12">
    <rdf:RDF>
      <cc:Work
         rdf:about="">
        <dc:format>image/svg+xml</dc:format>
        <dc:type
           rdf:resource="http://purl.org/dc/dcmitype/StillImage" />
        <dc:title></dc:title>
      </cc:Work>
    </rdf:RDF>
  </metadata>
  <defs
     id="defs10" />
  <sodipodi:namedview
     pagecolor="#ffffff"
     bordercolor="#666666"
     borderopacity="1"
     objecttolerance="10"
     gridtolerance="10"
     guidetolerance="10"
     inkscape:pageopacity="0"
     inkscape:pageshadow="2"
     inkscape:window-width="1600"
     inkscape:window-height="878"
     id="namedview8"
     showgrid="true"
     inkscape:zoom="39.333334"
     inkscape:cx="9.5052399"
     inkscape:cy="11.683412"
     inkscape:window-x="-8"
     inkscape:window-y="331"
     inkscape:window-maximized="1"
     inkscape:current-layer="svg6">
    <inkscape:grid
       type="xygrid"
       id="grid818"
       dotted="false" />
  </sodipodi:namedview>
  <path
     d="M0 0h24v24H0z"
     fill="none"
     id="path4" />
  <ellipse
     style="opacity:1;fill:#54606c;fill-opacity:0;stroke:#54606c;stroke-width:1.9112432;stroke-miterlimit:4;stroke-dasharray:none;stroke-opacity:1"
     id="path816"
     cx="11.988672"
     cy="11.998615"
     rx="9.0382862"
     ry="9.0299349" />
  <ellipse
     style="opacity:1;fill:#54606c;fill-opacity:1;stroke:#54606c;stroke-width:1.74962258;stroke-miterlimit:4;stroke-dasharray:none;stroke-opacity:1"
     id="path817"
     cx="12.012712"
     cy="10.461864"
     rx="7.3582397"
     ry="0.73112094" />
  <ellipse
     style="opacity:1;fill:#54606c;fill-opacity:1;stroke:#54606c;stroke-width:2.01352286;stroke-miterlimit:4;stroke-dasharray:none;stroke-opacity:1"
     id="path824"
     cx="12.038136"
     cy="11.961864"
     rx="3.2347641"
     ry="2.0313742" />
  <ellipse
     style="opacity:1;fill:#54606c;fill-opacity:1;stroke:#54606c;stroke-width:1.94556129;stroke-miterlimit:4;stroke-dasharray:none;stroke-opacity:1"
     id="path826"
     cx="15.793199"
     cy="8.7111816"
     rx="0.1861935"
     ry="2.1079168"
     transform="matrix(0.83360023,0.55236823,-0.52776042,0.84939328,0,0)" />
  <ellipse
     style="opacity:1;fill:#54606c;fill-opacity:1;stroke:#54606c;stroke-width:1.94552958;stroke-miterlimit:4;stroke-dasharray:none;stroke-opacity:1"
     id="path826-6"
     cx="-5.4334373"
     cy="21.451557"
     rx="0.1764459"
     ry="2.2242942"
     transform="matrix(-0.87965175,0.47561833,0.50014744,0.86594026,0,0)" />
  <circle
     style="opacity:1;fill:#ffffff;fill-opacity:0.94117647;stroke:#ffffff;stroke-width:1.34285533;stroke-miterlimit:4;stroke-dasharray:none;stroke-opacity:1"
     id="path855"
     cx="12.038135"
     cy="11.504237"
     r="0.71416557" />
  <ellipse
     style="opacity:1;fill:#ffffff;fill-opacity:0.94117647;stroke:#ffffff;stroke-width:0.23597243;stroke-miterlimit:4;stroke-dasharray:none;stroke-opacity:1"
     id="path860"
     cx="19.305096"
     cy="-1.5285592"
     rx="0.031161448"
     ry="1.6241275"
     transform="matrix(0.39001781,0.92080731,-0.52421745,0.85158445,0,0)" />
  <ellipse
     style="opacity:1;fill:#ffffff;fill-opacity:0.94117647;stroke:#ffffff;stroke-width:0.23099111;stroke-miterlimit:4;stroke-dasharray:none;stroke-opacity:1"
     id="path860-1"
     cx="-5.781796"
     cy="25.548651"
     rx="0.029790465"
     ry="1.6279027"
     transform="matrix(-0.40815991,0.91291045,0.52324934,0.85217963,0,0)" />
  <path
     style="fill:#0a0000;stroke:none;stroke-width:0.02542373;fill-opacity:1"
     d="M 11.26202,21.971969 C 8.239846,21.727798 5.5740506,20.228887 3.8357211,17.796345 2.8086595,16.359121 2.1721191,14.627004 2.0194691,12.854065 1.9790207,12.384282 2.0010404,11.164381 2.057256,10.760656 2.3363136,8.7565366 3.0450646,7.1301932 4.3174764,5.5742152 4.5754379,5.2587652 5.3450833,4.5017851 5.6709677,4.2429967 7.411517,2.8608083 9.3922812,2.1069104 11.516257,2.0182237 c 2.127535,-0.088835 4.075407,0.425922 5.847457,1.545287 0.759902,0.4800131 1.598165,1.2047881 2.205506,1.906915 2.663137,3.0787613 3.181163,7.5078603 1.301917,11.1313253 -1.435975,2.768772 -4.056297,4.689058 -7.155728,5.244026 -0.682129,0.122139 -1.795043,0.179383 -2.453389,0.126192 z m 1.690677,-1.970031 c 1.140543,-0.142333 2.126706,-0.47593 3.136089,-1.06087 L 16.26301,18.840105 16.092097,18.736006 C 15.890868,18.613442 15.755748,18.483576 15.565479,18.229864 15.071297,17.5709 14.23882,16.173092 13.780899,15.233383 l -0.20532,-0.421341 -0.127119,0.03291 c -0.521646,0.13506 -1.393793,0.196187 -1.979213,0.138719 -0.270087,-0.02651 -0.778325,-0.111521 -0.864531,-0.144602 -0.02134,-0.0082 -0.04377,0.02265 -0.06288,0.08644 -0.10591,0.353498 -0.7944168,1.563745 -1.433159,2.519187 -0.5374792,0.803971 -0.8867532,1.206236 -1.1595402,1.335461 -0.0866,0.04102 -0.1574552,0.08155 -0.1574552,0.09006 0,0.04495 0.7935808,0.451 1.1877155,0.607715 0.8212029,0.326523 1.5301349,0.48584 2.5495729,0.57296 0.232355,0.01986 1.115723,-0.01052 1.423728,-0.04895 z m 3.686441,-2.130673 c 0,-0.124869 -0.108661,-0.320773 -0.818991,-1.476548 -0.766366,-1.24695 -0.862222,-1.388299 -0.941488,-1.388299 -0.05972,0 -0.06987,0.0103 -0.06891,0.06992 6.13e-4,0.03845 0.01598,0.111501 0.03414,0.162328 0.03924,0.109832 0.39616,0.713449 0.990154,1.674536 0.610035,0.987042 0.666175,1.067797 0.742319,1.067797 0.05707,0 0.06278,-0.01 0.06278,-0.10973 z M 7.8154777,17.547647 c 0.3519366,-0.55414 0.8540103,-1.369822 1.1667201,-1.895483 0.2298724,-0.386412 0.2586353,-0.448096 0.2586353,-0.554654 0,-0.114484 -0.00301,-0.11953 -0.066696,-0.111848 -0.076324,0.0092 -0.2004869,0.193862 -0.9541787,1.419062 -0.6557158,1.06593 -0.7807807,1.289491 -0.8000199,1.430084 l -0.016526,0.120763 h 0.076496 c 0.071102,0 0.094762,-0.02876 0.3355692,-0.407924 z M 6.6059647,17.291672 C 6.9136681,16.530681 7.990083,14.754183 8.5956862,14.007868 L 8.694223,13.886436 8.5205494,13.702783 C 8.0933591,13.251047 7.8406314,12.71208 7.7998248,12.165766 L 7.7841915,11.95647 7.7053091,11.94474 C 7.6619231,11.93824 7.4548162,11.92048 7.2450704,11.90516 6.3834448,11.84224 5.4568628,11.71383 4.9561981,11.587951 4.562249,11.488901 4.2706453,11.352954 4.1028631,11.190118 3.9907213,11.081282 3.9809741,11.076773 3.9654435,11.126558 c -0.03457,0.110818 -0.044972,1.257382 -0.014371,1.583973 0.1756395,1.874503 0.9618988,3.57901 2.2669854,4.914528 l 0.2608663,0.26695 0.019247,-0.190678 c 0.012339,-0.122233 0.051032,-0.269284 0.1077926,-0.409662 z M 18.226802,17.103876 c 0.999749,-1.220116 1.597738,-2.635928 1.77998,-4.214327 0.04174,-0.361528 0.05499,-1.200064 0.02493,-1.57821 l -0.01649,-0.207463 -0.111894,0.104881 c -0.323431,0.303161 -1.082965,0.495753 -2.539608,0.643957 -0.279661,0.02845 -0.634322,0.06038 -0.788135,0.07094 l -0.279661,0.0192 -0.0174,0.209859 c -0.04412,0.53222 -0.266535,1.037037 -0.650372,1.476176 l -0.140385,0.160611 0.177993,0.258881 c 0.829091,1.20586 1.867167,3.151187 1.931321,3.619244 l 0.01657,0.120909 0.202416,-0.215213 c 0.111329,-0.118367 0.29616,-0.329619 0.410736,-0.46945 z m -5.864945,-4.245904 c 0.224982,-0.05305 0.43448,-0.166147 0.611747,-0.330265 0.807987,-0.748053 0.493841,-2.057841 -0.567517,-2.366178 -0.60859,-0.1768028 -1.315048,0.131291 -1.600259,0.697891 -0.167023,0.331806 -0.203518,0.638937 -0.116398,0.979572 0.06951,0.271782 0.160486,0.429641 0.368765,0.639873 0.35059,0.353877 0.825239,0.491906 1.303662,0.379107 z M 4.6712103,9.416275 C 5.3184168,9.1892825 6.7732676,9.0181384 9.0374433,8.902645 9.8748274,8.859931 13.148284,8.843611 14.173036,8.877041 c 2.619321,0.08545 4.40213,0.2723634 5.20233,0.5454234 0.09963,0.033997 0.207004,0.075654 0.238613,0.09257 0.05471,0.029281 0.05662,0.027271 0.03984,-0.041896 C 19.620356,9.335231 19.352704,8.6878242 19.217645,8.4181028 18.828581,7.6411211 18.387279,7.0225931 17.771445,6.3911139 16.395352,4.9800599 14.669024,4.1535254 12.716453,3.9708749 12.253418,3.927561 11.257808,3.9530273 10.829015,4.0191531 9.885183,4.164705 8.958663,4.4704518 8.174056,4.8952761 7.7937727,5.1011798 7.2865759,5.435676 6.9526976,5.7007616 6.6143149,5.9694235 5.953602,6.6291611 5.693699,6.9579019 5.1218413,7.6812212 4.6710641,8.4881543 4.3883362,9.2946212 L 4.2828429,9.5955359 4.3656516,9.5449676 C 4.4111964,9.5171551 4.5486977,9.4592434 4.6712103,9.416275 Z"
     id="path821"
     inkscape:connector-curvature="0" />
</svg>
